<?xml version="1.0" encoding="utf-8"?>
<!-- Generator: Adobe Illustrator 19.2.0, SVG Export Plug-In . SVG Version: 6.00 Build 0)  -->
<svg version="1.1" id="Layer_1" xmlns="http://www.w3.org/2000/svg" xmlns:xlink="http://www.w3.org/1999/xlink" x="0px" y="0px"
	 viewBox="0 0 300.2 292.1" style="enable-background:new 0 0 300.2 292.1;" xml:space="preserve">
<style type="text/css">
	.st0{fill:#2B190F;}
	.st1{fill:#1C140D;}
	.st2{fill:#68F9C9;}
	.st3{fill:#FA7518;}
</style>
<g>
	<g id="XMLID_1_">
		<g>
			<path class="st0" d="M233.7,89.7c0-5.5-3.8-10.3-8.9-11.8c-0.3-0.1-0.7-0.2-1-0.3c-0.9-0.2-1.7-0.3-2.6-0.3
				c-1.5,0-2.9,0.3-4.2,0.8c-0.6,0.2-1.1,0.5-1.6,0.8c-0.2,0.1-0.5,0.3-0.7,0.4c-3.2,2.1-5.4,5.6-5.6,9.6c0,0.2,0,0.4,0,0.6
				c-0.1,6.9,5.4,12.5,12.2,12.5S233.7,96.6,233.7,89.7z M19.3,13.1c64.6,0.1,129.2,0.1,193.8,0h0c0.9,0,1.7,0,2.5,0.1
				c0.9,0,1.7,0.1,2.6,0.1h0.1c21.8,0,43.5-0.1,65.3-0.2c2.5-0.1,3.7,0.8,3.4,3.4c-0.1,0.8,0,1.7,0,2.5c0,84.7-0.1,169.5,0.1,254.3
				c0,3.1-0.5,4.8-2.1,5.5c-1,0.4-2.3,0.6-4.1,0.6c-87.3-0.1-174.6-0.1-261.8,0c-4.6,0-6.2-0.9-6.2-5.9c0.4-21.5,0.3-42.9,0.4-64.3
				c0,0-0.1,0-0.1,0c-0.1-1.7-0.3-3.3-0.3-5c0.1-61.6,0.2-123.3,0-184.9c0-4.5,1.1-5.9,4.7-6.2c0.3,0,0.5,0,0.8,0c0.3,0,0.5,0,0.8,0
				H19.3z M173.1,214.1c1.2,3.2,2.8,4.3,6.2,4.2c6.7-0.3,13.3-0.2,20-0.1c1.1,0,1.9,0,2.5-0.3c0,0,0,0,0,0c1.1-0.4,1.3-1.5,0.4-3.6
				c-1.4-3.2-2.5-6.5-3.7-9.8c-8.2-22.3-16.5-44.6-24.7-66.9c-0.1-0.3-0.2-0.5-0.3-0.8c-0.5-1.3-1.1-2.5-1.6-3.8
				c-6.9-18.6-13.8-37.1-20.6-55.7c-0.2-0.5-0.3-0.9-0.5-1.3c-0.4-1-0.9-1.7-1.8-2.2c-0.2-0.1-0.3-0.2-0.6-0.3
				c-0.5-0.2-1.1-0.3-1.9-0.3c-9,0.1-18,0.1-27,0c-0.6,0-1.2,0.1-1.6,0.2c-0.2,0.1-0.3,0.1-0.5,0.2c-1,0.5-1.5,1.4-1.5,3.1
				c-0.2,4.7-1.5,9.2-3.1,13.6c-0.1,0.3-0.2,0.6-0.3,0.9c-0.1,0.3-0.2,0.6-0.3,0.9c-6,15.8-11.8,31.8-17.8,47.7
				c-0.8,2.3-1.7,4.5-2.5,6.8c-3.5,9.3-6.9,18.5-10.4,27.8c-3.4,9.3-6.9,18.5-10.3,27.7c0,0,0,0,0,0.1c-1.3,3.9-2.6,7.9-4,11.7
				c-1.1,2.9-0.7,4.3,2.8,4.2c6-0.1,12-0.2,17.7,0.1c1.4,0.1,2.5,0,3.4-0.4c1.6-0.6,2.6-1.8,3.4-4.1c3.6-10.7,7.8-21.2,11.4-31.9
				c0.6-1.7,1.4-2.8,2.4-3.3c0,0,0.1,0,0.1,0c0.8-0.3,1.7-0.4,2.9-0.4c14.7,0.1,29.4,0.2,44-0.1c3.6-0.1,4.9,1.2,6,4.3
				C165.1,192.9,169.3,203.5,173.1,214.1z M234.3,113.4c0-2.5-0.7-3.5-3.4-3.4c-5.9,0.2-11.7,0.4-17.5,0c-1.9-0.1-3,0.1-3.8,0.8
				c-0.1,0.1-0.1,0.1-0.2,0.2c-0.8,0.8-1,2.3-1,4.2c0.1,11.6,0.1,23.2,0.1,34.8v64.1c0,2.2-0.2,4.3,3.2,4.2c6.5-0.2,13-0.2,19.5,0
				c1.2,0,1.9-0.3,2.4-0.7c0.6-0.6,0.7-1.5,0.7-2.8C234.2,181,234.2,147.2,234.3,113.4z"/>
			<path class="st1" d="M287.3,273.2c0,3.3-0.6,4.9-2.3,5.6c1.5-0.8,2.1-2.4,2.1-5.5C286.9,188.5,287,103.7,287,19
				c0-0.8-0.1-1.7,0-2.5c0.3-2.6-0.9-3.5-3.4-3.4c-21.8,0.1-43.5,0.2-65.3,0.2c0,0,0-0.1,0.1-0.1c21.8-0.1,43.6-0.1,65.4-0.2
				c2.6,0,3.7,0.8,3.4,3.4c-0.1,0.8,0,1.7,0,2.5C287.2,103.7,287.2,188.5,287.3,273.2z"/>
			<path class="st2" d="M234.2,113.5v101.4c0,1.2-0.1,2.1-0.6,2.7c-0.5,0.4-1.2,0.6-2.3,0.6c-6.5-0.1-13-0.2-19.5,0
				c-3.4,0.1-3.2-2-3.2-4.2v-33.3c0-5.5,0-11.1,0-16.6c0-4.7,0-9.5,0-14.2c0-11.6,0-23.2-0.1-34.8c0-1.9,0.2-3.3,0.9-4.1
				c0.1-0.1,0.1-0.1,0.2-0.2c0.7-0.6,1.9-0.8,3.7-0.7c5.8,0.3,11.7,0.2,17.5,0C233.5,110,234.2,110.9,234.2,113.5z"/>
			<path class="st1" d="M224.8,77.9c5.1,1.5,8.9,6.3,8.9,11.8C233.6,84.2,229.8,79.4,224.8,77.9z"/>
			<path class="st2" d="M221.3,102.1c-6.8,0-12.3-5.6-12.2-12.5c0-0.2,0-0.4,0-0.6c0.3-4,2.4-7.5,5.6-9.6c0.2-0.1,0.4-0.3,0.7-0.4
				c0.5-0.3,1-0.5,1.6-0.8c1.3-0.5,2.7-0.8,4.2-0.8c0.9,0,1.8,0.1,2.6,0.3c0.3,0.1,0.7,0.2,1,0.3c5,1.5,8.8,6.3,8.9,11.8
				C233.7,96.6,228.1,102.1,221.3,102.1z"/>
			<path class="st1" d="M230.9,110c2.7-0.1,3.4,0.9,3.4,3.4c-0.1,33.8-0.1,67.6,0,101.4c0,1.3-0.1,2.2-0.7,2.8
				c0.5-0.6,0.6-1.5,0.6-2.7V113.5c0-2.6-0.7-3.5-3.4-3.4c-5.8,0.2-11.7,0.3-17.5,0c-1.8-0.1-2.9,0.1-3.7,0.7
				c0.7-0.7,1.9-0.9,3.8-0.8C219.2,110.4,225,110.2,230.9,110z"/>
			<path class="st3" d="M208.6,164.1c0,5.5,0,11.1,0,16.6C208.5,175.2,208.5,169.6,208.6,164.1z"/>
			<path class="st3" d="M208.6,149.9c0,4.7,0,9.5,0,14.2C208.5,159.4,208.6,154.6,208.6,149.9z"/>
			<path class="st2" d="M148.5,73.6c0.2,0.1,0.4,0.2,0.6,0.3c0.2,0.1,0.4,0.3,0.6,0.5c0.2,0.2,0.4,0.4,0.5,0.6
				c0.5,0.7,0.8,1.5,1.2,2.5c6.8,18.6,13.7,37.1,20.6,55.7c0.4,1.3,1,2.5,1.6,3.8c0.1,0.3,0.2,0.5,0.3,0.8
				c8.2,22.3,16.5,44.6,24.7,66.9c1.2,3.3,2.3,6.6,3.7,9.8c1,2.2,0.8,3.2-0.4,3.6c0,0,0,0,0,0c-0.6,0.2-1.3,0.2-2.2,0.2
				c-6.7-0.1-13.3-0.2-20,0.1c-3.4,0.2-5.1-1-6.2-4.2c-3.8-10.6-8-21.1-11.8-31.8c-1.1-3-2.5-4.4-6-4.3c-14.7,0.3-29.3,0.2-44,0.1
				c-1.3,0-2.3,0.1-3.2,0.5c0,0-0.1,0-0.1,0c-1.2,0.5-2.1,1.5-2.7,3.4c-3.6,10.7-7.8,21.2-11.4,31.9c-0.7,2.1-1.7,3.4-3.1,4
				c-0.9,0.3-1.9,0.4-3.1,0.3c-6-0.2-12-0.2-18,0c-3.5,0.1-3.9-1.3-2.8-4.2c1.5-3.9,2.7-7.8,4-11.7c0,0,0,0,0,0
				c3.5-9.3,6.9-18.6,10.3-27.8c3.5-9.3,6.9-18.5,10.4-27.8c0.8-2.3,1.7-4.6,2.5-6.8c5.9-15.9,11.8-31.8,17.8-47.7
				c0.1-0.3,0.2-0.6,0.3-0.9c0.1-0.3,0.2-0.6,0.3-0.9c1.6-4.4,3-8.8,3.1-13.6c0.1-1.7,0.5-2.7,1.5-3.1c0.2-0.1,0.3-0.1,0.5-0.2
				c0.4-0.1,1-0.2,1.6-0.2c9,0.1,18,0.1,27,0C147.3,73.3,148,73.4,148.5,73.6z M126,156.2C126,156.2,126,156.2,126,156.2
				C126,156.2,126,156.2,126,156.2C126.1,156.2,126.1,156.2,126,156.2C126.1,156.2,126.1,156.2,126,156.2
				C126.1,156.2,126.1,156.2,126,156.2c0.1,0,0.1,0,0.1,0c0,0,0,0,0,0c0,0,0,0,0,0c0,0,0,0,0,0c0,0,0,0,0,0c0,0,0,0,0,0c0,0,0,0,0,0
				c0,0,0,0,0,0c0,0,0,0,0,0c0,0,0,0,0,0c0,0,0,0,0,0h0c0,0,0,0,0,0h0c0,0,0,0,0,0h0c0,0,0,0,0,0h0c0,0,0,0,0,0c0,0,0,0,0,0h0
				c0,0,0,0,0,0h0c0,0,0,0,0,0c0,0,0,0,0,0c6.3,0,12.6,0,18.8,0.1c1.3,0,2.7,0,4,0c2.2,0.1,3.3-0.2,3.4-1.5c0-0.2,0-0.4,0-0.6
				c0-0.1,0-0.2,0-0.3c0-0.2-0.1-0.4-0.1-0.6c-0.1-0.3-0.2-0.6-0.3-1c-1.3-3.6-2.5-7.1-3.7-10.7c0,0,0-0.1,0-0.1c-1-3-2.1-6-3.1-9
				c-0.2-0.6-0.4-1.1-0.6-1.7c-2.1-6-4.1-12.1-6.2-18.1c0,0,0,0,0,0c-1.5-4.4-3-8.8-4.5-13.3c-0.2-0.6-0.3-1.3-1.6-1.5
				c-5.4,18.5-11.9,36.7-18.2,55c-0.2,0.6-0.3,1.1-0.3,1.5c0,0.1,0,0.2,0,0.3c0.1,1.4,1.8,1.4,3.4,1.4c2.5,0,5,0,7.6,0
				c0.3,0,0.6,0,0.8,0c0,0,0,0,0,0h0c0,0,0,0,0,0c0,0,0,0,0,0C125.9,156.2,125.9,156.2,126,156.2C125.9,156.2,125.9,156.2,126,156.2
				C125.9,156.2,125.9,156.2,126,156.2C126,156.2,126,156.2,126,156.2C126,156.2,126,156.2,126,156.2z"/>
			<path class="st2" d="M171.9,133.1c0.5,1.3,1.1,2.5,1.6,3.8C172.9,135.6,172.3,134.3,171.9,133.1z"/>
			<path class="st0" d="M149.4,156.3c2.2,0,3.3-0.3,3.4-1.5C152.7,156.1,151.6,156.4,149.4,156.3z"/>
			<path class="st2" d="M151.3,77.4c-0.4-1-0.7-1.8-1.2-2.5c0.3,0.3,0.5,0.7,0.7,1.1C151,76.5,151.1,76.9,151.3,77.4z"/>
			<path class="st0" d="M126.6,156.2C126.5,156.2,126.5,156.2,126.6,156.2C126.5,156.2,126.5,156.2,126.6,156.2z"/>
			<path class="st0" d="M126.5,156.2C126.5,156.2,126.5,156.2,126.5,156.2C126.5,156.2,126.5,156.2,126.5,156.2z"/>
			<path class="st0" d="M126.5,156.2C126.5,156.2,126.5,156.2,126.5,156.2C126.5,156.2,126.5,156.2,126.5,156.2z"/>
			<path class="st0" d="M126.5,156.2C126.5,156.2,126.5,156.2,126.5,156.2C126.5,156.2,126.5,156.2,126.5,156.2z"/>
			<path class="st0" d="M126.5,156.2C126.4,156.2,126.4,156.2,126.5,156.2C126.4,156.2,126.4,156.2,126.5,156.2z"/>
			<path class="st0" d="M126.4,156.2C126.4,156.2,126.4,156.2,126.4,156.2C126.4,156.2,126.4,156.2,126.4,156.2z"/>
			<path class="st0" d="M126.4,156.2C126.4,156.2,126.4,156.2,126.4,156.2C126.4,156.2,126.4,156.2,126.4,156.2z"/>
			<path class="st0" d="M126.4,156.2C126.4,156.2,126.4,156.2,126.4,156.2C126.4,156.2,126.4,156.2,126.4,156.2z"/>
			<path class="st0" d="M126.3,156.2C126.3,156.2,126.3,156.2,126.3,156.2C126.3,156.2,126.3,156.2,126.3,156.2z"/>
			<path class="st0" d="M126.3,156.2C126.3,156.2,126.3,156.2,126.3,156.2C126.3,156.2,126.3,156.2,126.3,156.2z"/>
			<path class="st0" d="M126.3,156.2C126.3,156.2,126.3,156.2,126.3,156.2C126.3,156.2,126.3,156.2,126.3,156.2z"/>
			<path class="st0" d="M126.3,156.2C126.3,156.2,126.3,156.2,126.3,156.2C126.3,156.2,126.3,156.2,126.3,156.2z"/>
			<path class="st0" d="M126.3,156.2C126.2,156.2,126.2,156.2,126.3,156.2C126.2,156.2,126.2,156.2,126.3,156.2z"/>
			<path class="st0" d="M126.2,156.2C126.2,156.2,126.2,156.2,126.2,156.2C126.2,156.2,126.2,156.2,126.2,156.2z"/>
			<path class="st0" d="M126.2,156.2C126.2,156.2,126.2,156.2,126.2,156.2C126.2,156.2,126.2,156.2,126.2,156.2z"/>
			<path class="st0" d="M126.1,156.2C126.1,156.2,126.1,156.2,126.1,156.2C126.1,156.2,126.1,156.2,126.1,156.2z"/>
			<path class="st0" d="M126,156.2C126,156.2,126,156.2,126,156.2C125.9,156.2,125.9,156.2,126,156.2
				C125.9,156.2,125.9,156.2,126,156.2C125.9,156.2,125.9,156.2,126,156.2c-0.1,0-0.1,0-0.1,0c0,0,0,0,0,0h0c0,0,0,0,0,0
				c-0.3,0-0.6,0-0.8,0c-2.5,0-5,0-7.6-0.1c-1.6,0-3.2,0.1-3.4-1.3c0-0.1,0-0.2,0-0.3c0-0.4,0.1-0.9,0.3-1.4
				c6.3-18.3,12.8-36.6,18.2-55c1.3,0.1,1.4,0.9,1.6,1.5c1.5,4.4,3,8.8,4.5,13.2c0,0,0,0,0,0c2.1,6,4.1,12.1,6.2,18.1
				c0.2,0.6,0.4,1.1,0.6,1.7c1,3,2.1,6,3.1,9c0,0,0,0.1,0,0.1c1.2,3.6,2.5,7.1,3.7,10.7c0.1,0.4,0.2,0.7,0.3,1
				c0.1,0.2,0.1,0.4,0.1,0.6c0,0.1,0,0.2,0,0.3c0,0.2,0,0.4,0,0.6c-0.1,1.2-1.2,1.5-3.4,1.5c-1.3,0-2.7,0-4,0
				c-6.3-0.1-12.6-0.1-18.8-0.1c0,0,0,0,0,0c0,0,0,0,0,0h0c0,0,0,0,0,0h0c0,0,0,0,0,0c0,0,0,0,0,0h0c0,0,0,0,0,0h0c0,0,0,0,0,0h0
				c0,0,0,0,0,0h0c0,0,0,0,0,0c0,0,0,0,0,0c0,0,0,0,0,0c0,0,0,0,0,0c0,0,0,0,0,0c0,0,0,0,0,0c0,0,0,0,0,0c0,0,0,0,0,0c0,0,0,0,0,0
				c0,0,0,0,0,0c0,0,0,0,0,0c0,0,0,0,0,0C126.1,156.2,126.1,156.2,126,156.2C126.1,156.2,126.1,156.2,126,156.2
				C126,156.2,126,156.2,126,156.2C126,156.2,126,156.2,126,156.2C126,156.2,126,156.2,126,156.2z"/>
			<path class="st0" d="M125.8,156.2C125.8,156.2,125.8,156.2,125.8,156.2C125.8,156.2,125.8,156.2,125.8,156.2z"/>
			<path class="st0" d="M125,156.2c-2.5,0-5,0-7.6,0c-1.6,0-3.3,0.1-3.4-1.4c0.2,1.3,1.8,1.3,3.4,1.3
				C119.9,156.2,122.5,156.2,125,156.2z"/>
			<path class="st2" d="M116,76.8c-0.1,4.7-1.5,9.2-3.1,13.6C114.5,86,115.8,81.5,116,76.8z"/>
			<path class="st1" d="M179.3,218.3c-3.4,0.1-5-1-6.2-4.2c-3.8-10.6-8-21.2-11.8-31.8c-1.1-3.1-2.4-4.4-6-4.3
				c-14.6,0.3-29.3,0.2-44,0.1c-1.2,0-2.1,0.1-2.9,0.4c0.8-0.4,1.9-0.6,3.2-0.5c14.7,0.1,29.3,0.2,44-0.1c3.5-0.1,4.9,1.3,6,4.3
				c3.8,10.7,8,21.2,11.8,31.8c1.1,3.2,2.8,4.4,6.2,4.2c6.7-0.3,13.3-0.2,20-0.1c0.9,0,1.7,0,2.2-0.2c-0.6,0.2-1.5,0.3-2.5,0.3
				C192.6,218.1,186,218,179.3,218.3z"/>
			<path class="st2" d="M112.2,92.2c-5.9,15.8-11.8,31.8-17.8,47.7C100.4,123.9,106.2,108,112.2,92.2z"/>
			<path class="st1" d="M88,218.2c1.2,0.1,2.3,0,3.1-0.3c-0.9,0.4-2,0.5-3.4,0.4C82,218,76,218.1,70,218.2C76,218,82,218,88,218.2z"
				/>
			<path class="st2" d="M71.2,202.2c3.5-9.3,6.9-18.5,10.3-27.7C78.1,183.7,74.7,193,71.2,202.2C71.2,202.3,71.2,202.3,71.2,202.2
				C71.2,202.2,71.2,202.2,71.2,202.2z"/>
			<path class="st2" d="M13.2,209.2c-0.1,21.5,0,43-0.4,64.4c-0.1,5,1.5,5.9,6.2,5.9c87.2-0.2,174.5-0.2,261.7,0
				c1.9,0,3.3-0.2,4.3-0.7c1.7-0.7,2.3-2.4,2.3-5.6c-0.1-84.7-0.1-169.5-0.1-254.3c0-0.8-0.1-1.7,0-2.5c0.3-2.6-0.8-3.4-3.4-3.4
				c-21.8,0.1-43.6,0.1-65.4,0.2c0,0,0,0.1-0.1,0.1h-0.1c-0.9-0.1-1.7-0.1-2.6-0.1c-0.8,0-1.6-0.1-2.5-0.1h0
				c-64.6,0-129.2,0.1-193.8,0h-0.1c-0.3,0-0.5,0-0.8,0c-0.3,0-0.5,0-0.8,0c-3.7,0.3-4.8,1.6-4.8,6.2c0.1,61.6,0,123.3,0,184.9
				c0,1.7,0.2,3.3,0.3,5H13.2z M300.2,3.6c-0.1,95-0.1,190,0,285c0,3-0.6,3.6-3.6,3.6c-48.8-0.1-97.7-0.1-146.5-0.1
				s-97.7,0-146.5,0.1c-3,0-3.6-0.6-3.6-3.6c0.1-95,0.1-190,0-285C0,0.6,0.6,0,3.6,0c97.7,0.1,195.3,0.1,293,0
				C299.6,0,300.2,0.6,300.2,3.6z"/>
			<path class="st1" d="M12.8,19.3c0-4.5,1.1-5.9,4.8-6.2c-3.6,0.3-4.7,1.7-4.7,6.2c0.2,61.6,0.1,123.3,0,184.9c0,1.7,0.2,3.3,0.3,5
				h-0.1c-0.1-1.7-0.3-3.3-0.3-5C12.8,142.6,12.9,80.9,12.8,19.3z"/>
		</g>
		<g>
		</g>
	</g>
</g>
</svg>
