<?xml version="1.0" encoding="utf-8"?>
<!-- Generator: Adobe Illustrator 19.1.0, SVG Export Plug-In . SVG Version: 6.00 Build 0)  -->
<svg version="1.1" xmlns="http://www.w3.org/2000/svg" xmlns:xlink="http://www.w3.org/1999/xlink" x="0px" y="0px"
	 viewBox="0 0 37 37" style="enable-background:new 0 0 37 37;" xml:space="preserve">
<style type="text/css">
	.st0{fill:#68F9C9;}
	.st1{fill:#FFFFFF;}
</style>
<g id="Layer_1">
</g>
<g id="Header">
	<g>
		<circle class="st0" cx="18.5" cy="18.5" r="18.5"/>
		<circle class="st1" cx="18.5" cy="18.5" r="16"/>
		<g>
			<path class="st0" d="M7.1,13.1c0.7,0.4,9.8,5.3,10.2,5.5c0.3,0.2,0.8,0.3,1.2,0.3c0.4,0,0.9-0.1,1.2-0.3
				c0.3-0.2,9.5-5.1,10.2-5.5c0.7-0.4,1.3-1.5,0.1-1.5H7C5.8,11.7,6.4,12.8,7.1,13.1z M30.2,15.9c-0.8,0.4-10,5.2-10.5,5.5
				c-0.5,0.2-0.8,0.3-1.2,0.3c-0.4,0-0.8,0-1.2-0.3c-0.5-0.2-9.7-5.1-10.5-5.5c-0.5-0.3-0.5,0-0.5,0.3c0,0.2,0,10,0,10
				c0,0.6,0.8,1.3,1.3,1.3h21.8c0.6,0,1.3-0.7,1.3-1.3c0,0,0-9.7,0-10C30.7,15.9,30.7,15.6,30.2,15.9z"/>
		</g>
	</g>
</g>
</svg>
