<?xml version="1.0" encoding="utf-8"?>
<!-- Generator: Adobe Illustrator 19.1.0, SVG Export Plug-In . SVG Version: 6.00 Build 0)  -->
<svg version="1.1" xmlns="http://www.w3.org/2000/svg" xmlns:xlink="http://www.w3.org/1999/xlink" x="0px" y="0px"
	 viewBox="0 0 37 37" style="enable-background:new 0 0 37 37;" xml:space="preserve">
<style type="text/css">
	.st0{fill:#68F9C9;}
	.st1{fill:#FFFFFF;}
</style>
<g id="Layer_1">
</g>
<g id="Header">
	<g>
		<circle class="st0" cx="18.5" cy="18.5" r="18.5"/>
		<circle class="st1" cx="18.5" cy="18.5" r="16"/>
		<path class="st0" d="M22.8,21.7c-1,0-1.8,1.1-1.8,2.4c0,1.4,0.8,2.4,1.8,2.4c1,0,1.8-1.1,1.8-2.4C24.6,22.8,23.8,21.7,22.8,21.7z
			 M29,15.3c0.2-0.5,0.2-3.3-0.9-6c0,0-2.5,0.3-6.2,2.8c-0.8-0.2-2.1-0.3-3.4-0.3c-1.3,0-2.6,0.1-3.4,0.3c-3.7-2.6-6.2-2.8-6.2-2.8
			c-1.1,2.7-1.1,5.5-0.9,6c-1.3,1.4-2,3-2,5.3c0,9.8,8.1,9.9,10.1,9.9c0.5,0,1.4,0,2.4,0c1,0,1.9,0,2.4,0c2,0,10.1-0.2,10.1-9.9
			C31,18.3,30.2,16.7,29,15.3z M18.5,29.3L18.5,29.3c-5.2,0-9.2-0.6-9.2-5.6c0-1.2,0.4-2.3,1.4-3.2c1.7-1.5,4.5-0.7,7.7-0.7
			c0,0,0,0,0,0c0,0,0,0,0,0c3.2,0,6-0.8,7.7,0.7c1,0.9,1.4,2,1.4,3.2C27.7,28.7,23.7,29.3,18.5,29.3z M14.2,21.7
			c-1,0-1.8,1.1-1.8,2.4c0,1.4,0.8,2.4,1.8,2.4c1,0,1.8-1.1,1.8-2.4C15.9,22.8,15.2,21.7,14.2,21.7z"/>
	</g>
</g>
</svg>
