<?xml version="1.0" encoding="utf-8"?>
<!-- Generator: Adobe Illustrator 19.2.0, SVG Export Plug-In . SVG Version: 6.00 Build 0)  -->
<svg version="1.1" xmlns="http://www.w3.org/2000/svg" xmlns:xlink="http://www.w3.org/1999/xlink" x="0px" y="0px"
	 viewBox="0 0 512 512" style="enable-background:new 0 0 512 512;" xml:space="preserve">
<style type="text/css">
	.st0{fill:#1C140D;}
	.st1{fill:#68F9C9;}
</style>
<g id="Layer_2">
	<rect x="0" y="0" class="st0" width="512" height="512"/>
</g>
<g id="Layer_1">
	<g>
		<g id="XMLID_1_">
			<g>
				<path class="st0" d="M512,0c0,170.6,0,341.1,0,512c-85,0-170,0-255,0c8.8-2.7,17.6-5.6,26.5-8c49.3-13.5,98.7-27,148.1-40.3
					c4.1-1.1,6.2-2.5,6.5-7.4c1.9-24.9,4.4-49.7,6.6-74.6c2.2-23.9,4.5-47.7,6.7-71.6c1.8-20,3.5-40.1,5.3-60.2
					c2.2-23.9,4.5-47.7,6.6-71.6c1.8-19.7,3.5-39.4,5.3-59.2c1.9-20.6,3.8-41.1,5.7-61.6c1.5-16.1,2.9-32.1,4.3-48.2
					c0.3-3.1,0.8-6.3,1.2-9.4C490.7,0,501.3,0,512,0z"/>
				<path class="st1" d="M32,0c149.3,0,298.7,0,448,0c-0.4,3.1-1,6.3-1.2,9.4c-1.5,16.1-2.9,32.1-4.3,48.2
					c-1.9,20.6-3.8,41.1-5.7,61.6c-1.8,19.7-3.5,39.4-5.3,59.2c-2.2,23.9-4.5,47.7-6.6,71.6c-1.8,20.1-3.5,40.1-5.3,60.2
					c-2.2,23.9-4.5,47.7-6.7,71.6c-2.3,24.8-4.7,49.7-6.6,74.6c-0.4,4.9-2.4,6.3-6.5,7.4c-49.4,13.3-98.8,26.8-148.1,40.3
					c-8.9,2.4-17.7,5.3-26.5,8c-0.7,0-1.3,0-2,0c-1-0.5-1.9-1.1-3-1.4c-20.3-5.6-40.7-11.2-61-16.8c-37.5-10.3-75-20.6-112.5-30.8
					c-3.1-0.8-4.2-2.1-4.4-5.3c-0.5-8.1-1.4-16.2-2.1-24.4c-1.9-20.7-3.8-41.4-5.7-62.1c-1.5-16.1-2.9-32.1-4.4-48.2
					c-1.8-20.2-3.8-40.4-5.6-60.6c-1.8-20-3.6-40.1-5.4-60.2c-1.9-20.7-3.8-41.4-5.7-62.1c-1.5-16.1-2.9-32.1-4.4-48.2
					c-1.9-20.4-3.7-40.8-5.6-61.1C34.2,20.5,33.1,10.3,32,0z M390.3,99.3c0.1-1.1-0.3-2.2-0.4-3.4c-89.5,0-178.8,0-268.1,0
					c0,2.7-0.2,5,0,7.3c2.3,24.9,4.8,49.7,7.1,74.5c2.7,29.5,5.3,59,7.8,88.5c0.4,4.6,1.7,6.1,6.5,6.1c53.8-0.1,107.6,0,161.5,0
					c1.9,0,3.9,0,6.3,0c-0.5,6.8-0.9,12.9-1.5,19c-1.2,13.4-2.4,26.8-4,40.2c-0.2,1.7-2.3,4-3.9,4.6c-14.2,4.8-28.4,9.3-42.7,13.7
					c-2.1,0.6-4.7,0.6-6.7,0c-14.1-4.3-28.2-8.9-42.3-13.3c-2.5-0.8-3.9-1.9-4.1-4.7c-0.7-7.8-1.9-15.5-2.4-23.3
					c-0.2-3.9-1.5-5.1-5.4-5c-17.5,0.2-35,0.1-52.5,0.1c-1.4,0-2.9,0.2-5,0.3c0.8,8.7,1.5,17.1,2.3,25.5c1.6,16.7,3.2,33.5,4.6,50.2
					c0.3,3.4,1.6,4.7,4.8,5.7c33.8,9.9,67.6,20,101.4,30c1.8,0.5,4,0.6,5.7,0.1c33.6-9.9,67.2-20,100.9-30c2.7-0.8,4.1-1.8,4.4-5
					c1.2-14.9,2.6-29.8,4-44.7c1.9-20.3,4-40.7,5.8-61c1.8-20.4,3.4-40.7,5.2-61.1c0.6-6.2,0.7-6.2-5.6-6.2
					c-57.2,0-114.3,0.1-171.5,0.1c-1.9,0-3.9,0-6,0c-1.3-16-2.6-31.4-3.9-47.4c2.4,0,4.3,0,6.3,0c58.2,0.1,116.3,0.1,174.5,0.2
					c11,0,11,0,12.2-11c0-0.5,0.2-1,0.3-1.5C387.3,131.8,388.9,115.6,390.3,99.3z"/>
				<path class="st0" d="M389.9,95.9c0.2,1.2,0.5,2.3,0.4,3.4c-1.5,16.2-3,32.4-4.6,48.6c0,0.5-0.2,1-0.3,1.5
					c-1.2,11-1.2,11-12.2,11c-58.2-0.1-116.3-0.1-174.5-0.2c-2,0-3.9,0-6.3,0c1.3,16,2.6,31.4,3.9,47.4c2.1,0,4.1,0,6,0
					c57.2-0.1,114.3-0.1,171.5-0.1c6.3,0,6.2,0,5.6,6.2c-1.8,20.4-3.4,40.7-5.2,61.1c-1.8,20.4-3.9,40.7-5.8,61
					c-1.4,14.9-2.8,29.8-4,44.7c-0.2,3.1-1.6,4.2-4.4,5c-33.6,10-67.2,20-100.9,30c-1.8,0.5-4,0.4-5.7-0.1
					c-33.8-10-67.5-20.1-101.4-30c-3.2-1-4.5-2.3-4.8-5.7c-1.4-16.7-3.1-33.5-4.6-50.2c-0.8-8.4-1.5-16.8-2.3-25.5
					c2.1-0.1,3.6-0.3,5-0.3c17.5,0,35,0.1,52.5-0.1c3.9,0,5.1,1.1,5.4,5c0.5,7.8,1.7,15.5,2.4,23.3c0.3,2.8,1.6,4,4.1,4.7
					c14.1,4.4,28.2,9,42.3,13.3c2.1,0.6,4.7,0.6,6.7,0c14.3-4.4,28.6-8.9,42.7-13.7c1.7-0.6,3.8-2.9,3.9-4.6
					c1.6-13.4,2.7-26.8,4-40.2c0.5-6.1,0.9-12.2,1.5-19c-2.4,0-4.4,0-6.3,0c-53.8-0.1-107.7-0.2-161.5,0c-4.8,0-6.1-1.6-6.5-6.1
					c-2.4-29.5-5.1-59-7.8-88.5c-2.3-24.9-4.8-49.7-7.1-74.5c-0.2-2.3,0-4.6,0-7.3C211.1,95.9,300.4,95.9,389.9,95.9z"/>
				<path class="st0" d="M255,512c-85,0-170,0-255,0C0,341.3,0,170.7,0,0c10.7,0,21.3,0,32,0c1.1,10.3,2.3,20.5,3.2,30.8
					c1.9,20.4,3.8,40.7,5.6,61.1c1.5,16.1,2.9,32.2,4.4,48.2c1.9,20.7,3.8,41.4,5.7,62.1c1.8,20.1,3.5,40.1,5.4,60.2
					c1.8,20.2,3.7,40.4,5.6,60.6c1.5,16.1,2.9,32.2,4.4,48.2c1.9,20.7,3.8,41.4,5.7,62.1c0.8,8.1,1.7,16.2,2.1,24.4
					c0.2,3.2,1.3,4.5,4.4,5.3c37.5,10.2,75,20.5,112.5,30.8c20.3,5.6,40.7,11.2,61,16.8C253,510.9,254,511.5,255,512z"/>
			</g>
			<g>
			</g>
		</g>
	</g>
</g>
</svg>
