<?xml version="1.0" encoding="utf-8"?>
<!-- Generator: Adobe Illustrator 19.2.0, SVG Export Plug-In . SVG Version: 6.00 Build 0)  -->
<svg version="1.1" id="Layer_1" xmlns="http://www.w3.org/2000/svg" xmlns:xlink="http://www.w3.org/1999/xlink" x="0px" y="0px"
	 viewBox="0 0 511.8 511.9" style="enable-background:new 0 0 511.8 511.9;" xml:space="preserve">
<style type="text/css">
	.st0{fill:#68F9C9;}
	.st1{fill:#1C140D;}
</style>
<g>
	<g id="XMLID_1_">
		<g>
			<path class="st0" d="M511.8,0c0,170.6,0,341.2,0,511.9c-170.4,0-341.1,0-511.8,0C0,341.3,0,170.7,0,0C170.5,0,341,0,511.8,0z
				 M471.7,407.7c1.5-27.8-9.5-49.6-33.6-63.5c-14.4-8.3-29.9-14.6-44.8-22.1c-7.2-3.7-14.9-7.2-20.8-12.5
				c-11.8-10.6-6.6-30.1,8.6-34.2c11.2-3,21.6-1,29.9,7.6c3.3,3.4,6,7.4,9.3,11.5c11.8-7.5,23.5-15,35.1-22.7
				c0.8-0.5,1.1-3.3,0.5-4.4c-6-10.2-13.6-19-23.8-25.1c-18.5-11.2-38.8-12.8-59.4-9.2c-24.8,4.3-43.6,17.5-51.1,42.2
				c-7.7,25.3-3.6,48.9,15.4,68.6c12,12.4,27.5,19.1,42.9,26c10.6,4.7,21.3,9.6,31.4,15.2c8.7,4.9,13,12.9,11.4,23.1
				c-1.6,9.9-8.4,15.5-17.4,17.9c-19.9,5.3-37.7,1.5-52-14.1c-3.6-3.9-6.6-8.3-10.1-12.8c-13,7.5-25.9,15.1-39.3,22.8
				c6.6,13,15.1,23.7,26.7,31.4c31.4,21.1,65.4,23.6,100.3,11C456.6,455.1,470.3,435.4,471.7,407.7z M278.6,239.2c0-4.2-1.7-5-5.3-5
				c-12.7,0.1-25.3,0-38,0.1c-1.6,0-3.3,0.2-5.4,0.4c0,2.5,0,4.6,0,6.7c0,51.5,0,102.9,0,154.4c0,4.5-0.3,9-1.1,13.4
				c-1.7,10.7-7.6,16.7-17.6,18.3c-12.5,2-22.7-1.7-30-12.4c-2.6-3.8-5.1-7.7-7.8-11.9c-13.3,8.1-26.2,15.9-39.3,23.8
				c4.3,9.6,9.9,17.6,17.1,24.4c17.8,16.6,39.4,21.5,62.9,19.9c16.7-1.1,32.1-5.7,44.6-17.5c14.7-14,19.7-31.9,19.8-51.2
				C278.8,348.1,278.5,293.6,278.6,239.2z"/>
			<path class="st1" d="M438.2,344.2c24.1,14,35.1,35.7,33.6,63.5c-1.5,27.6-15.1,47.4-40.9,56.7c-34.9,12.6-68.9,10.1-100.3-11
				c-11.5-7.7-20.1-18.4-26.7-31.4c13.4-7.8,26.3-15.3,39.3-22.8c3.5,4.5,6.5,8.9,10.1,12.8c14.3,15.6,32.1,19.4,52,14.1
				c9-2.4,15.9-8,17.4-17.9c1.6-10.2-2.6-18.2-11.4-23.1c-10.2-5.6-20.8-10.5-31.4-15.2c-15.4-6.9-30.9-13.6-42.9-26
				c-19-19.7-23.1-43.3-15.4-68.6c7.5-24.8,26.4-37.9,51.1-42.2c20.6-3.6,40.9-2,59.4,9.2c10.2,6.2,17.8,15,23.8,25.1
				c0.6,1.1,0.4,3.9-0.5,4.4c-11.6,7.7-23.4,15.2-35.1,22.7c-3.3-4.1-6-8.1-9.3-11.5c-8.3-8.6-18.7-10.6-29.9-7.6
				c-15.3,4.1-20.4,23.6-8.6,34.2c5.9,5.3,13.6,8.8,20.8,12.5C408.2,329.6,423.8,335.8,438.2,344.2z"/>
			<path class="st1" d="M273.3,234.2c3.7-0.1,5.4,0.8,5.3,5c-0.1,54.5,0.1,108.9-0.2,163.4c-0.1,19.3-5.1,37.3-19.8,51.2
				c-12.5,11.9-27.9,16.5-44.6,17.5c-23.5,1.5-45.1-3.3-62.9-19.9c-7.3-6.8-12.8-14.8-17.1-24.4c13.1-8,26-15.8,39.3-23.8
				c2.7,4.2,5.2,8.1,7.8,11.9c7.3,10.6,17.5,14.3,30,12.4c10-1.6,15.9-7.6,17.6-18.3c0.7-4.4,1-8.9,1.1-13.4c0.1-51.5,0-103,0-154.4
				c0-2.1,0-4.3,0-6.7c2.2-0.2,3.8-0.4,5.4-0.4C248,234.2,260.6,234.3,273.3,234.2z"/>
		</g>
		<g>
		</g>
	</g>
</g>
</svg>
