<?xml version="1.0" encoding="utf-8"?>
<!-- Generator: Adobe Illustrator 19.1.0, SVG Export Plug-In . SVG Version: 6.00 Build 0)  -->
<svg version="1.1" xmlns="http://www.w3.org/2000/svg" xmlns:xlink="http://www.w3.org/1999/xlink" x="0px" y="0px"
	 viewBox="0 0 37 37" style="enable-background:new 0 0 37 37;" xml:space="preserve">
<style type="text/css">
	.st0{fill:#68F9C9;}
	.st1{fill:#FFFFFF;}
</style>
<g id="Layer_1">
</g>
<g id="Header">
	<g>
		<circle class="st0" cx="18.6" cy="18.5" r="18.5"/>
		<circle class="st1" cx="18.6" cy="18.5" r="16"/>
		<g>
			<path class="st0" d="M12.8,9.4c0,1.2-0.9,2.2-2.4,2.2c-1.4,0-2.3-1-2.3-2.2c0-1.3,0.9-2.2,2.4-2.2C11.9,7.2,12.8,8.1,12.8,9.4z
				 M8.2,27.9V13.4h4.5v14.4H8.2z"/>
			<path class="st0" d="M15.4,18c0-1.8-0.1-3.3-0.1-4.6h3.9l0.2,2h0.1c0.6-0.9,2-2.3,4.5-2.3c3,0,5.2,2,5.2,6.2v8.5h-4.5v-8
				c0-1.9-0.6-3.1-2.3-3.1c-1.2,0-2,0.9-2.3,1.7c-0.1,0.3-0.1,0.7-0.1,1.1v8.3h-4.5V18z"/>
		</g>
	</g>
</g>
</svg>
