<?xml version="1.0" encoding="utf-8"?>
<!-- Generator: Adobe Illustrator 19.2.0, SVG Export Plug-In . SVG Version: 6.00 Build 0)  -->
<svg version="1.1" id="Layer_1" xmlns="http://www.w3.org/2000/svg" xmlns:xlink="http://www.w3.org/1999/xlink" x="0px" y="0px"
	 viewBox="0 0 299.9 299.9" style="enable-background:new 0 0 299.9 299.9;" xml:space="preserve">
<style type="text/css">
	.st0{fill:#68F9C9;}
	.st1{fill:#1C140D;}
</style>
<g>
	<g id="XMLID_1_">
		<g>
			<path class="st0" d="M299.9,0c0,100,0,200,0,299.9c-100,0-200,0-299.9,0C0,199.9,0,99.9,0,0C100,0,200,0,299.9,0z M287,282.8
				c0-89,0-177.7,0-266.5c-91.5,0-182.5,0-273.9,0c0,89,0,177.6,0,266.5C104.6,282.8,195.7,282.8,287,282.8z"/>
			<path class="st1" d="M90.3,207.7c3.2,0.1,4.5-1,4.4-4.3c-0.2-6.7,0-13.3,0-20c0-8.1,0-16.3,0-25.2c4.8,0,9.1,0.1,13.4,0
				c27.6-0.4,44.9-14.9,47.3-40.6c2.2-23.9-8.9-43.6-36.1-46.6c-13.3-1.5-26.9-0.4-40.4-0.7c-4.9-0.1-6.4,1.9-6.3,6.8
				c0.2,38.8,0.2,77.6,0.2,116.4c0,3.5,0.1,7,0,10.5c-0.1,2.5,1,3.6,3.6,3.6C81,207.5,85.6,207.5,90.3,207.7z M199.2,123.9
				c7.2,0.6,14.3,2.2,21.4,3.5c1.5,0.3,2.9,1.1,5.2,2c0-6-0.2-11.1,0.1-16.2c0.2-3.7-1.5-5.8-5-6.1c-8.6-0.8-17.3-2.3-25.8-1.6
				c-14.1,1.2-24.2,10.4-26.8,22.5c-2.9,13.1,2.1,24.2,14.5,32.3c3.2,2.1,6.7,3.6,10,5.6c3.7,2.2,7.4,4.4,10.9,6.9
				c3.5,2.5,5.3,6.1,4.1,10.5c-1.2,4.4-4.8,6.2-9,6.8c-2.6,0.4-5.4,0.7-7.9,0.1c-7.5-1.7-14.9-3.8-23-6c0,4.9,0.2,10.4-0.1,15.8
				c-0.1,3.2,1,4.9,4,5.9c11.4,4,23,5.2,34.8,2.2c12.2-3,20.6-10.3,22.8-23c2.2-12.5-1.4-23.1-12.3-30.5c-3.4-2.3-7.1-4.4-10.6-6.5
				c-4-2.4-8.1-4.5-12.1-7c-3.7-2.4-6.5-5.6-5.2-10.4C190.6,126,194.7,123.6,199.2,123.9z M287,16.3c0,88.8,0,177.5,0,266.5
				c-91.2,0-182.3,0-273.9,0c0-89,0-177.6,0-266.5C104.4,16.3,195.5,16.3,287,16.3z"/>
			<path class="st0" d="M217.2,154.7c10.9,7.4,14.5,18,12.3,30.5c-2.2,12.7-10.6,20-22.8,23c-11.8,2.9-23.4,1.8-34.8-2.2
				c-2.9-1-4.1-2.8-4-5.9c0.2-5.5,0.1-10.9,0.1-15.8c8.1,2.1,15.5,4.3,23,6c2.5,0.6,5.3,0.2,7.9-0.1c4.1-0.6,7.8-2.4,9-6.8
				c1.2-4.4-0.6-7.9-4.1-10.5c-3.5-2.5-7.2-4.7-10.9-6.9c-3.3-2-6.8-3.5-10-5.6c-12.5-8-17.4-19.1-14.5-32.3
				c2.6-12.1,12.7-21.3,26.8-22.5c8.5-0.7,17.2,0.8,25.8,1.6c3.5,0.3,5.1,2.4,5,6.1c-0.2,5.1-0.1,10.2-0.1,16.2
				c-2.3-0.9-3.7-1.7-5.2-2c-7.1-1.3-14.2-2.9-21.4-3.5c-4.5-0.3-8.6,2-9.9,6.9c-1.3,4.8,1.5,8,5.2,10.4c3.9,2.5,8.1,4.7,12.1,7
				C210.1,150.3,213.7,152.3,217.2,154.7z"/>
			<path d="M133.2,113.4c0.1,13.4-6.3,22-18.9,24.2c-5.2,0.9-10.6,0.9-15.9,0.8c-1.2,0-3.4-1.8-3.4-2.8c-0.2-14.9-0.2-29.9-0.2-45.1
				c7,0,13.2-0.8,19.2,0.2C126.9,92.6,133.1,100.5,133.2,113.4z"/>
			<path class="st0" d="M98.5,138.5c5.3,0,10.7,0.1,15.9-0.8c12.6-2.3,19-10.8,18.9-24.2c-0.1-12.9-6.4-20.8-19.1-22.7
				c-6-0.9-12.2-0.2-19.2-0.2c0,15.3-0.1,30.2,0.2,45.1C95.1,136.6,97.3,138.5,98.5,138.5z M78.9,70.4c13.5,0.3,27-0.8,40.4,0.7
				c27.2,3,38.3,22.7,36.1,46.6c-2.4,25.7-19.7,40.1-47.3,40.6c-4.3,0.1-8.5,0-13.4,0c0,8.9,0,17,0,25.2c0,6.7-0.1,13.3,0,20
				c0.1,3.3-1.2,4.4-4.4,4.3c-4.7-0.2-9.3-0.1-14,0c-2.6,0.1-3.6-1.1-3.6-3.6c0.1-3.5,0-7,0-10.5c0-38.8,0-77.6-0.2-116.4
				C72.5,72.2,73.9,70.3,78.9,70.4z"/>
		</g>
		<g>
		</g>
	</g>
</g>
</svg>
